<?xml version='1.0' encoding='UTF-8'?>
<svg x="0px" y="0px" viewBox="0 0 32 32" version="1.1" xmlns="http://www.w3.org/2000/svg" xmlns:xlink="http://www.w3.org/1999/xlink" xml:space="preserve" id="_x35__Quarters" style="enable-background:new 0 0 32 32">
  <style type="text/css">
	.Black{fill:#727272;}
	.st0{opacity:0.5;}
</style>
  <g class="st0">
    <path d="M14,7c0,3.9-3.1,7-7,7s-7-3.1-7-7s3.1-7,7-7S14,3.1,14,7z M23,0c-3.9,0-7,3.1-7,7s3.1,7,7,7s7-3.1,7-7   S26.9,0,23,0z M7,16c-3.9,0-7,3.1-7,7s3.1,7,7,7s7-3.1,7-7S10.9,16,7,16z M23,16c-3.9,0-7,3.1-7,7s3.1,7,7,7s7-3.1,7-7   S26.9,16,23,16z" class="Black" />
  </g>
  <path d="M30,23c0,3.9-3.1,7-7,7s-7-3.1-7-7s3.1-7,7-7S30,19.1,30,23z M7,0C6.7,0,6.3,0,6,0.1V6H0.1C0,6.3,0,6.7,0,7  c0,3.9,3.1,7,7,7s7-3.1,7-7S10.9,0,7,0z M23,0c-0.3,0-0.7,0-1,0.1v13.8c0.3,0,0.7,0.1,1,0.1c3.9,0,7-3.1,7-7S26.9,0,23,0z M13.9,24  c0-0.3,0.1-0.7,0.1-1c0-3.9-3.1-7-7-7c-0.3,0-0.7,0-1,0.1V24H13.9z" class="Black" />
</svg>